Mono_opsz10.ufo
<glyph name="numbersign" format="2">
  <advance width="525"/>
  <unicode hex="0023"/>
  <outline>
    <contour>
      <point x="366" y="163" type="line"/>
      <point x="442" y="163" type="line" smooth="yes"/>
      <point x="454" y="163"/>
      <point x="489" y="163"/>
      <point x="489" y="198" type="curve" smooth="yes"/>
      <point x="489" y="233"/>
      <point x="454" y="233"/>
      <point x="442" y="233" type="curve" smooth="yes"/>
      <point x="376" y="233" type="line"/>
      <point x="394" y="379" type="line"/>
      <point x="442" y="379" type="line" smooth="yes"/>
      <point x="454" y="379"/>
      <point x="489" y="379"/>
      <point x="489" y="414" type="curve" smooth="yes"/>
      <point x="489" y="449"/>
      <point x="454" y="449"/>
      <point x="442" y="449" type="curve" smooth="yes"/>
      <point x="404" y="449" type="line"/>
      <point x="418" y="564" type="line" smooth="yes"/>
      <point x="423" y="601"/>
      <point x="399" y="611"/>
      <point x="384" y="611" type="curve" smooth="yes"/>
      <point x="353" y="611"/>
      <point x="349" y="582"/>
      <point x="348" y="570" type="curve" smooth="yes"/>
      <point x="333" y="449" type="line"/>
      <point x="230" y="449" type="line"/>
      <point x="244" y="564" type="line" smooth="yes"/>
      <point x="249" y="601"/>
      <point x="225" y="611"/>
      <point x="210" y="611" type="curve" smooth="yes"/>
      <point x="179" y="611"/>
      <point x="175" y="582"/>
      <point x="174" y="570" type="curve" smooth="yes"/>
      <point x="159" y="449" type="line"/>
      <point x="82" y="449" type="line" smooth="yes"/>
      <point x="70" y="449"/>
      <point x="35" y="449"/>
      <point x="35" y="414" type="curve" smooth="yes"/>
      <point x="35" y="379"/>
      <point x="70" y="379"/>
      <point x="82" y="379" type="curve" smooth="yes"/>
      <point x="149" y="379" type="line"/>
      <point x="131" y="233" type="line"/>
      <point x="82" y="233" type="line" smooth="yes"/>
      <point x="70" y="233"/>
      <point x="35" y="233"/>
      <point x="35" y="198" type="curve" smooth="yes"/>
      <point x="35" y="163"/>
      <point x="70" y="163"/>
      <point x="82" y="163" type="curve" smooth="yes"/>
      <point x="121" y="163" type="line"/>
      <point x="105" y="40"/>
      <point x="105" y="36"/>
      <point x="105" y="35" type="curve" smooth="yes"/>
      <point x="105" y="17"/>
      <point x="119" y="0"/>
      <point x="140" y="0" type="curve" smooth="yes"/>
      <point x="171" y="0"/>
      <point x="174" y="29"/>
      <point x="176" y="41" type="curve" smooth="yes"/>
      <point x="192" y="163" type="line"/>
      <point x="295" y="163" type="line"/>
      <point x="279" y="40"/>
      <point x="279" y="36"/>
      <point x="279" y="35" type="curve" smooth="yes"/>
      <point x="279" y="17"/>
      <point x="293" y="0"/>
      <point x="314" y="0" type="curve" smooth="yes"/>
      <point x="345" y="0"/>
      <point x="348" y="29"/>
      <point x="350" y="41" type="curve" smooth="yes"/>
    </contour>
    <contour>
      <point x="220" y="379" type="line"/>
      <point x="323" y="379" type="line"/>
      <point x="305" y="233" type="line"/>
      <point x="202" y="233" type="line"/>
    </contour>
  </outline>
</glyph>
<glyph name="ampersand" format="2">
  <advance width="525"/>
  <unicode hex="0026"/>
  <outline>
    <contour>
      <point x="419" y="370" type="line"/>
      <point x="450" y="370" type="line" smooth="yes"/>
      <point x="465" y="370"/>
      <point x="490" y="370"/>
      <point x="490" y="400" type="curve" smooth="yes"/>
      <point x="490" y="431"/>
      <point x="466" y="431"/>
      <point x="450" y="431" type="curve" smooth="yes"/>
      <point x="358" y="431" type="line" smooth="yes"/>
      <point x="343" y="431"/>
      <point x="318" y="431"/>
      <point x="318" y="401" type="curve" smooth="yes"/>
      <point x="318" y="370"/>
      <point x="342" y="370"/>
      <point x="359" y="370" type="curve"/>
      <point x="332" y="299"/>
      <point x="299" y="213"/>
      <point x="272" y="160" type="curve"/>
      <point x="259" y="181"/>
      <point x="218" y="244"/>
      <point x="198" y="298" type="curve"/>
      <point x="299" y="403"/>
      <point x="299" y="462"/>
      <point x="299" y="485" type="curve" smooth="yes"/>
      <point x="299" y="546"/>
      <point x="278" y="622"/>
      <point x="207" y="622" type="curve" smooth="yes"/>
      <point x="157" y="622"/>
      <point x="103" y="577"/>
      <point x="103" y="477" type="curve" smooth="yes"/>
      <point x="103" y="434"/>
      <point x="110" y="378"/>
      <point x="131" y="315" type="curve"/>
      <point x="123" y="307"/>
      <point x="65" y="243"/>
      <point x="63" y="242" type="curve"/>
      <point x="44" y="218"/>
      <point x="28" y="183"/>
      <point x="28" y="137" type="curve" smooth="yes"/>
      <point x="28" y="61"/>
      <point x="75" y="-11"/>
      <point x="151" y="-11" type="curve" smooth="yes"/>
      <point x="203" y="-11"/>
      <point x="244" y="21"/>
      <point x="275" y="59" type="curve"/>
      <point x="291" y="40"/>
      <point x="334" y="-11"/>
      <point x="392" y="-11" type="curve" smooth="yes"/>
      <point x="458" y="-11"/>
      <point x="487" y="57"/>
      <point x="487" y="105" type="curve" smooth="yes"/>
      <point x="487" y="138"/>
      <point x="461" y="138"/>
      <point x="459" y="138" type="curve" smooth="yes"/>
      <point x="433" y="138"/>
      <point x="431" y="112"/>
      <point x="431" y="107" type="curve"/>
      <point x="427" y="63"/>
      <point x="408" y="50"/>
      <point x="392" y="50" type="curve" smooth="yes"/>
      <point x="355" y="50"/>
      <point x="317" y="96"/>
      <point x="308" y="108" type="curve"/>
      <point x="329" y="143"/>
      <point x="349" y="189"/>
      <point x="359" y="214" type="curve" smooth="yes"/>
    </contour>
    <contour>
      <point x="175" y="364" type="curve"/>
      <point x="160" y="416"/>
      <point x="159" y="469"/>
      <point x="159" y="477" type="curve" smooth="yes"/>
      <point x="159" y="535"/>
      <point x="185" y="561"/>
      <point x="207" y="561" type="curve" smooth="yes"/>
      <point x="241" y="561"/>
      <point x="243" y="494"/>
      <point x="243" y="485" type="curve" smooth="yes"/>
      <point x="243" y="456"/>
      <point x="225" y="420"/>
    </contour>
    <contour>
      <point x="155" y="252" type="curve"/>
      <point x="162" y="236"/>
      <point x="181" y="203"/>
      <point x="195" y="180" type="curve" smooth="yes"/>
      <point x="217" y="141"/>
      <point x="222" y="132"/>
      <point x="239" y="108" type="curve"/>
      <point x="202" y="55"/>
      <point x="166" y="50"/>
      <point x="152" y="50" type="curve" smooth="yes"/>
      <point x="107" y="50"/>
      <point x="97" y="113"/>
      <point x="97" y="140" type="curve" smooth="yes"/>
      <point x="97" y="188"/>
      <point x="108" y="200"/>
    </contour>
  </outline>
</glyph>
<glyph name="slash" format="2">
  <advance width="525"/>
  <unicode hex="002F"/>
  <outline>
    <contour>
      <point x="458" y="635" type="line" smooth="yes"/>
      <point x="465" y="651"/>
      <point x="466" y="651"/>
      <point x="466" y="659" type="curve" smooth="yes"/>
      <point x="466" y="677"/>
      <point x="451" y="694"/>
      <point x="431" y="694" type="curve" smooth="yes"/>
      <point x="409" y="694"/>
      <point x="402" y="679"/>
      <point x="396" y="666" type="curve" smooth="yes"/>
      <point x="66" y="-24" type="line" smooth="yes"/>
      <point x="59" y="-40"/>
      <point x="58" y="-40"/>
      <point x="58" y="-48" type="curve" smooth="yes"/>
      <point x="58" y="-66"/>
      <point x="73" y="-83"/>
      <point x="93" y="-83" type="curve" smooth="yes"/>
      <point x="115" y="-83"/>
      <point x="122" y="-68"/>
      <point x="128" y="-55" type="curve" smooth="yes"/>
    </contour>
  </outline>
</glyph>
<glyph name="two" format="2">
  <advance width="525"/>
  <unicode hex="0032"/>
  <outline>
    <contour>
      <point x="67" y="58" type="line" smooth="yes"/>
      <point x="58" y="50"/>
      <point x="52" y="45"/>
      <point x="52" y="31" type="curve" smooth="yes"/>
      <point x="52" y="0"/>
      <point x="77" y="0"/>
      <point x="93" y="0" type="curve" smooth="yes"/>
      <point x="432" y="0" type="line" smooth="yes"/>
      <point x="465" y="0"/>
      <point x="472" y="9"/>
      <point x="472" y="41" type="curve" smooth="yes"/>
      <point x="472" y="67" type="line" smooth="yes"/>
      <point x="472" y="86"/>
      <point x="472" y="108"/>
      <point x="438" y="108" type="curve" smooth="yes"/>
      <point x="403" y="108"/>
      <point x="403" y="89"/>
      <point x="403" y="61" type="curve"/>
      <point x="165" y="61" type="line"/>
      <point x="224" y="112"/>
      <point x="320" y="187"/>
      <point x="363" y="227" type="curve" smooth="yes"/>
      <point x="426" y="283"/>
      <point x="472" y="347"/>
      <point x="472" y="427" type="curve" smooth="yes"/>
      <point x="472" y="547"/>
      <point x="371" y="622"/>
      <point x="249" y="622" type="curve" smooth="yes"/>
      <point x="131" y="622"/>
      <point x="52" y="540"/>
      <point x="52" y="455" type="curve" smooth="yes"/>
      <point x="52" y="418"/>
      <point x="80" y="407"/>
      <point x="97" y="407" type="curve" smooth="yes"/>
      <point x="118" y="407"/>
      <point x="141" y="424"/>
      <point x="141" y="452" type="curve" smooth="yes"/>
      <point x="141" y="464"/>
      <point x="136" y="477"/>
      <point x="127" y="484" type="curve"/>
      <point x="142" y="530"/>
      <point x="189" y="561"/>
      <point x="244" y="561" type="curve" smooth="yes"/>
      <point x="326" y="561"/>
      <point x="403" y="515"/>
      <point x="403" y="427" type="curve" smooth="yes"/>
      <point x="403" y="357"/>
      <point x="354" y="299"/>
      <point x="288" y="244" type="curve" smooth="yes"/>
    </contour>
  </outline>
</glyph>
<glyph name="eight" format="2">
  <advance width="525"/>
  <unicode hex="0038"/>
  <outline>
    <contour>
      <point x="262" y="360" type="curve" smooth="yes"/>
      <point x="189" y="360"/>
      <point x="127" y="405"/>
      <point x="127" y="461" type="curve" smooth="yes"/>
      <point x="127" y="513"/>
      <point x="183" y="561"/>
      <point x="262" y="561" type="curve" smooth="yes"/>
      <point x="340" y="561"/>
      <point x="397" y="513"/>
      <point x="397" y="461" type="curve" smooth="yes"/>
      <point x="397" y="404"/>
      <point x="335" y="360"/>
    </contour>
    <contour>
      <point x="341" y="329" type="curve"/>
      <point x="421" y="356"/>
      <point x="466" y="405"/>
      <point x="466" y="462" type="curve" smooth="yes"/>
      <point x="466" y="544"/>
      <point x="381" y="622"/>
      <point x="262" y="622" type="curve" smooth="yes"/>
      <point x="142" y="622"/>
      <point x="58" y="543"/>
      <point x="58" y="462" type="curve" smooth="yes"/>
      <point x="58" y="405"/>
      <point x="104" y="355"/>
      <point x="183" y="329" type="curve"/>
      <point x="108" y="308"/>
      <point x="44" y="249"/>
      <point x="44" y="174" type="curve" smooth="yes"/>
      <point x="44" y="77"/>
      <point x="137" y="-11"/>
      <point x="262" y="-11" type="curve" smooth="yes"/>
      <point x="388" y="-11"/>
      <point x="480" y="77"/>
      <point x="480" y="174" type="curve" smooth="yes"/>
      <point x="480" y="249"/>
      <point x="415" y="308"/>
    </contour>
    <contour>
      <point x="262" y="50" type="curve" smooth="yes"/>
      <point x="179" y="50"/>
      <point x="113" y="106"/>
      <point x="113" y="175" type="curve" smooth="yes"/>
      <point x="113" y="236"/>
      <point x="171" y="299"/>
      <point x="262" y="299" type="curve" smooth="yes"/>
      <point x="354" y="299"/>
      <point x="411" y="236"/>
      <point x="411" y="175" type="curve" smooth="yes"/>
      <point x="411" y="106"/>
      <point x="345" y="50"/>
    </contour>
  </outline>
</glyph>
<glyph name="semicolon" format="2">
  <advance width="525"/>
  <unicode hex="003B"/>
  <outline>
    <contour>
      <point x="325" y="368" type="curve" smooth="yes"/>
      <point x="325" y="405"/>
      <point x="295" y="431"/>
      <point x="263" y="431" type="curve" smooth="yes"/>
      <point x="225" y="431"/>
      <point x="200" y="400"/>
      <point x="200" y="369" type="curve" smooth="yes"/>
      <point x="200" y="332"/>
      <point x="230" y="306"/>
      <point x="262" y="306" type="curve" smooth="yes"/>
      <point x="300" y="306"/>
      <point x="325" y="337"/>
    </contour>
    <contour>
      <point x="266" y="0" type="curve"/>
      <point x="253" y="-54"/>
      <point x="215" y="-73"/>
      <point x="200" y="-81" type="curve" smooth="yes"/>
      <point x="194" y="-84"/>
      <point x="180" y="-91"/>
      <point x="180" y="-107" type="curve" smooth="yes"/>
      <point x="180" y="-122"/>
      <point x="195" y="-139"/>
      <point x="212" y="-139" type="curve" smooth="yes"/>
      <point x="234" y="-139"/>
      <point x="330" y="-85"/>
      <point x="330" y="27" type="curve" smooth="yes"/>
      <point x="330" y="93"/>
      <point x="300" y="125"/>
      <point x="262" y="125" type="curve" smooth="yes"/>
      <point x="226" y="125"/>
      <point x="200" y="97"/>
      <point x="200" y="63" type="curve" smooth="yes"/>
      <point x="200" y="35"/>
      <point x="217" y="0"/>
    </contour>
  </outline>
</glyph>
<glyph name="equal" format="2">
  <advance width="525"/>
  <unicode hex="003D"/>
  <outline>
    <contour>
      <point x="441" y="347" type="line" smooth="yes"/>
      <point x="453" y="347"/>
      <point x="486" y="347"/>
      <point x="486" y="382" type="curve" smooth="yes"/>
      <point x="486" y="417"/>
      <point x="449" y="417"/>
      <point x="435" y="417" type="curve" smooth="yes"/>
      <point x="89" y="417" type="line" smooth="yes"/>
      <point x="75" y="417"/>
      <point x="38" y="417"/>
      <point x="38" y="382" type="curve" smooth="yes"/>
      <point x="38" y="347"/>
      <point x="71" y="347"/>
      <point x="83" y="347" type="curve" smooth="yes"/>
    </contour>
    <contour>
      <point x="435" y="195" type="line" smooth="yes"/>
      <point x="449" y="195"/>
      <point x="486" y="195"/>
      <point x="486" y="230" type="curve" smooth="yes"/>
      <point x="486" y="265"/>
      <point x="453" y="265"/>
      <point x="441" y="265" type="curve" smooth="yes"/>
      <point x="83" y="265" type="line" smooth="yes"/>
      <point x="71" y="265"/>
      <point x="38" y="265"/>
      <point x="38" y="230" type="curve" smooth="yes"/>
      <point x="38" y="195"/>
      <point x="75" y="195"/>
      <point x="89" y="195" type="curve" smooth="yes"/>
    </contour>
  </outline>
</glyph>
<glyph name="greater" format="2">
  <advance width="525"/>
  <unicode hex="003E"/>
  <outline>
    <contour>
      <point x="446" y="273" type="line" smooth="yes"/>
      <point x="455" y="279"/>
      <point x="468" y="287"/>
      <point x="468" y="306" type="curve" smooth="yes"/>
      <point x="468" y="319"/>
      <point x="460" y="330"/>
      <point x="450" y="337" type="curve"/>
      <point x="117" y="546" type="line" smooth="yes"/>
      <point x="103" y="555"/>
      <point x="100" y="556"/>
      <point x="91" y="556" type="curve" smooth="yes"/>
      <point x="75" y="556"/>
      <point x="56" y="544"/>
      <point x="56" y="521" type="curve" smooth="yes"/>
      <point x="56" y="502"/>
      <point x="69" y="494"/>
      <point x="80" y="487" type="curve" smooth="yes"/>
      <point x="367" y="306" type="line"/>
      <point x="80" y="125" type="line" smooth="yes"/>
      <point x="69" y="118"/>
      <point x="56" y="110"/>
      <point x="56" y="91" type="curve" smooth="yes"/>
      <point x="56" y="68"/>
      <point x="75" y="56"/>
      <point x="91" y="56" type="curve" smooth="yes"/>
      <point x="100" y="56"/>
      <point x="103" y="57"/>
      <point x="117" y="66" type="curve" smooth="yes"/>
    </contour>
  </outline>
</glyph>
<glyph name="A" format="2">
  <advance width="525"/>
  <unicode hex="0041"/>
  <outline>
    <contour>
      <point x="316" y="584" type="line" smooth="yes"/>
      <point x="307" y="622"/>
      <point x="293" y="623"/>
      <point x="262" y="623" type="curve" smooth="yes"/>
      <point x="233" y="623"/>
      <point x="217" y="623"/>
      <point x="208" y="585" type="curve" smooth="yes"/>
      <point x="87" y="61" type="line"/>
      <point x="73" y="61"/>
      <point x="50" y="61"/>
      <point x="44" y="59" type="curve"/>
      <point x="33" y="53"/>
      <point x="27" y="43"/>
      <point x="27" y="30" type="curve" smooth="yes"/>
      <point x="27" y="0"/>
      <point x="53" y="0"/>
      <point x="70" y="0" type="curve" smooth="yes"/>
      <point x="172" y="0" type="line" smooth="yes"/>
      <point x="190" y="0"/>
      <point x="214" y="0"/>
      <point x="214" y="30" type="curve" smooth="yes"/>
      <point x="214" y="61"/>
      <point x="194" y="61"/>
      <point x="158" y="61" type="curve"/>
      <point x="181" y="165" type="line"/>
      <point x="343" y="165" type="line"/>
      <point x="366" y="61" type="line"/>
      <point x="330" y="61"/>
      <point x="310" y="61"/>
      <point x="310" y="30" type="curve" smooth="yes"/>
      <point x="310" y="0"/>
      <point x="334" y="0"/>
      <point x="352" y="0" type="curve" smooth="yes"/>
      <point x="454" y="0" type="line" smooth="yes"/>
      <point x="471" y="0"/>
      <point x="497" y="0"/>
      <point x="497" y="30" type="curve" smooth="yes"/>
      <point x="497" y="43"/>
      <point x="492" y="53"/>
      <point x="480" y="58" type="curve"/>
      <point x="474" y="61"/>
      <point x="452" y="61"/>
      <point x="437" y="61" type="curve"/>
    </contour>
    <contour>
      <point x="262" y="542" type="line"/>
      <point x="263" y="542" type="line"/>
      <point x="328" y="226" type="line"/>
      <point x="196" y="226" type="line"/>
    </contour>
  </outline>
</glyph>
<glyph name="C" format="2">
  <advance width="525"/>
  <unicode hex="0043"/>
  <outline>
    <contour>
      <point x="484" y="581" type="line" smooth="yes"/>
      <point x="484" y="597"/>
      <point x="484" y="622"/>
      <point x="454" y="622" type="curve" smooth="yes"/>
      <point x="436" y="622"/>
      <point x="431" y="612"/>
      <point x="426" y="605" type="curve"/>
      <point x="424" y="601"/>
      <point x="424" y="599"/>
      <point x="411" y="574" type="curve"/>
      <point x="378" y="602"/>
      <point x="332" y="622"/>
      <point x="281" y="622" type="curve" smooth="yes"/>
      <point x="152" y="622"/>
      <point x="40" y="488"/>
      <point x="40" y="306" type="curve" smooth="yes"/>
      <point x="40" y="123"/>
      <point x="152" y="-11"/>
      <point x="282" y="-11" type="curve" smooth="yes"/>
      <point x="398" y="-11"/>
      <point x="484" y="78"/>
      <point x="484" y="168" type="curve" smooth="yes"/>
      <point x="484" y="201"/>
      <point x="460" y="201"/>
      <point x="449" y="201" type="curve" smooth="yes"/>
      <point x="440" y="201"/>
      <point x="417" y="201"/>
      <point x="415" y="172" type="curve" smooth="yes"/>
      <point x="408" y="74"/>
      <point x="327" y="50"/>
      <point x="286" y="50" type="curve" smooth="yes"/>
      <point x="195" y="50"/>
      <point x="109" y="156"/>
      <point x="109" y="306" type="curve" smooth="yes"/>
      <point x="109" y="455"/>
      <point x="196" y="561"/>
      <point x="285" y="561" type="curve" smooth="yes"/>
      <point x="345" y="561"/>
      <point x="400" y="515"/>
      <point x="414" y="434" type="curve" smooth="yes"/>
      <point x="417" y="417"/>
      <point x="419" y="401"/>
      <point x="449" y="401" type="curve" smooth="yes"/>
      <point x="484" y="401"/>
      <point x="484" y="422"/>
      <point x="484" y="442" type="curve" smooth="yes"/>
    </contour>
  </outline>
</glyph>
<glyph name="F" format="2">
  <advance width="525"/>
  <unicode hex="0046"/>
  <outline>
    <contour>
      <point x="171" y="275" type="line"/>
      <point x="307" y="275" type="line"/>
      <point x="307" y="234"/>
      <point x="307" y="218"/>
      <point x="342" y="218" type="curve" smooth="yes"/>
      <point x="376" y="218"/>
      <point x="376" y="240"/>
      <point x="376" y="259" type="curve" smooth="yes"/>
      <point x="376" y="352" type="line" smooth="yes"/>
      <point x="376" y="371"/>
      <point x="376" y="393"/>
      <point x="342" y="393" type="curve" smooth="yes"/>
      <point x="307" y="393"/>
      <point x="307" y="377"/>
      <point x="307" y="336" type="curve"/>
      <point x="171" y="336" type="line"/>
      <point x="171" y="550" type="line"/>
      <point x="421" y="550" type="line"/>
      <point x="421" y="497" type="line" smooth="yes"/>
      <point x="421" y="478"/>
      <point x="421" y="456"/>
      <point x="455" y="456" type="curve" smooth="yes"/>
      <point x="490" y="456"/>
      <point x="490" y="477"/>
      <point x="490" y="497" type="curve" smooth="yes"/>
      <point x="490" y="570" type="line" smooth="yes"/>
      <point x="490" y="601"/>
      <point x="484" y="611"/>
      <point x="450" y="611" type="curve" smooth="yes"/>
      <point x="69" y="611" type="line" smooth="yes"/>
      <point x="53" y="611"/>
      <point x="28" y="611"/>
      <point x="28" y="580" type="curve" smooth="yes"/>
      <point x="28" y="550"/>
      <point x="54" y="550"/>
      <point x="69" y="550" type="curve" smooth="yes"/>
      <point x="102" y="550" type="line"/>
      <point x="102" y="61" type="line"/>
      <point x="69" y="61" type="line" smooth="yes"/>
      <point x="53" y="61"/>
      <point x="28" y="61"/>
      <point x="28" y="30" type="curve" smooth="yes"/>
      <point x="28" y="0"/>
      <point x="54" y="0"/>
      <point x="69" y="0" type="curve" smooth="yes"/>
      <point x="223" y="0" type="line" smooth="yes"/>
      <point x="238" y="0"/>
      <point x="263" y="0"/>
      <point x="263" y="30" type="curve" smooth="yes"/>
      <point x="263" y="61"/>
      <point x="239" y="61"/>
      <point x="223" y="61" type="curve" smooth="yes"/>
      <point x="171" y="61" type="line"/>
    </contour>
  </outline>
</glyph>
<glyph name="J" format="2">
  <advance width="525"/>
  <unicode hex="004A"/>
  <outline>
    <contour>
      <point x="407" y="550" type="line"/>
      <point x="437" y="550" type="line" smooth="yes"/>
      <point x="453" y="550"/>
      <point x="478" y="550"/>
      <point x="478" y="581" type="curve" smooth="yes"/>
      <point x="478" y="611"/>
      <point x="452" y="611"/>
      <point x="437" y="611" type="curve" smooth="yes"/>
      <point x="256" y="611" type="line" smooth="yes"/>
      <point x="241" y="611"/>
      <point x="215" y="611"/>
      <point x="215" y="581" type="curve" smooth="yes"/>
      <point x="215" y="550"/>
      <point x="241" y="550"/>
      <point x="256" y="550" type="curve" smooth="yes"/>
      <point x="338" y="550" type="line"/>
      <point x="338" y="140" type="line" smooth="yes"/>
      <point x="338" y="55"/>
      <point x="256" y="50"/>
      <point x="237" y="50" type="curve" smooth="yes"/>
      <point x="229" y="50"/>
      <point x="181" y="50"/>
      <point x="152" y="76" type="curve"/>
      <point x="156" y="81"/>
      <point x="160" y="86"/>
      <point x="160" y="102" type="curve" smooth="yes"/>
      <point x="160" y="126"/>
      <point x="141" y="146"/>
      <point x="116" y="146" type="curve" smooth="yes"/>
      <point x="93" y="146"/>
      <point x="71" y="131"/>
      <point x="71" y="99" type="curve" smooth="yes"/>
      <point x="71" y="36"/>
      <point x="137" y="-11"/>
      <point x="237" y="-11" type="curve" smooth="yes"/>
      <point x="326" y="-11"/>
      <point x="407" y="43"/>
      <point x="407" y="134" type="curve" smooth="yes"/>
    </contour>
  </outline>
</glyph>
<glyph name="M" format="2">
  <advance width="525"/>
  <unicode hex="004D"/>
  <outline>
    <contour>
      <point x="290" y="369" type="line" smooth="yes"/>
      <point x="278" y="333"/>
      <point x="269" y="304"/>
      <point x="263" y="275" type="curve"/>
      <point x="262" y="275" type="line"/>
      <point x="252" y="322"/>
      <point x="164" y="581"/>
      <point x="162" y="587" type="curve"/>
      <point x="152" y="611"/>
      <point x="127" y="611"/>
      <point x="113" y="611" type="curve" smooth="yes"/>
      <point x="57" y="611" type="line" smooth="yes"/>
      <point x="42" y="611"/>
      <point x="17" y="611"/>
      <point x="17" y="581" type="curve" smooth="yes"/>
      <point x="17" y="550"/>
      <point x="38" y="550"/>
      <point x="70" y="550" type="curve"/>
      <point x="70" y="61" type="line"/>
      <point x="38" y="61"/>
      <point x="17" y="61"/>
      <point x="17" y="30" type="curve" smooth="yes"/>
      <point x="17" y="0"/>
      <point x="42" y="0"/>
      <point x="57" y="0" type="curve" smooth="yes"/>
      <point x="139" y="0" type="line" smooth="yes"/>
      <point x="154" y="0"/>
      <point x="179" y="0"/>
      <point x="179" y="30" type="curve" smooth="yes"/>
      <point x="179" y="61"/>
      <point x="158" y="61"/>
      <point x="126" y="61" type="curve"/>
      <point x="126" y="538" type="line"/>
      <point x="127" y="538" type="line"/>
      <point x="138" y="492"/>
      <point x="202" y="300"/>
      <point x="206" y="287" type="curve" smooth="yes"/>
      <point x="214" y="264"/>
      <point x="227" y="226"/>
      <point x="232" y="219" type="curve" smooth="yes"/>
      <point x="238" y="211"/>
      <point x="250" y="204"/>
      <point x="262" y="204" type="curve" smooth="yes"/>
      <point x="275" y="204"/>
      <point x="289" y="212"/>
      <point x="297" y="226" type="curve"/>
      <point x="300" y="232"/>
      <point x="385" y="485"/>
      <point x="397" y="538" type="curve"/>
      <point x="398" y="538" type="line"/>
      <point x="398" y="61" type="line"/>
      <point x="366" y="61"/>
      <point x="345" y="61"/>
      <point x="345" y="30" type="curve" smooth="yes"/>
      <point x="345" y="0"/>
      <point x="370" y="0"/>
      <point x="385" y="0" type="curve" smooth="yes"/>
      <point x="467" y="0" type="line" smooth="yes"/>
      <point x="482" y="0"/>
      <point x="507" y="0"/>
      <point x="507" y="30" type="curve" smooth="yes"/>
      <point x="507" y="61"/>
      <point x="486" y="61"/>
      <point x="454" y="61" type="curve"/>
      <point x="454" y="550" type="line"/>
      <point x="486" y="550"/>
      <point x="507" y="550"/>
      <point x="507" y="581" type="curve" smooth="yes"/>
      <point x="507" y="611"/>
      <point x="482" y="611"/>
      <point x="467" y="611" type="curve" smooth="yes"/>
      <point x="411" y="611" type="line" smooth="yes"/>
      <point x="370" y="611"/>
      <point x="366" y="597"/>
      <point x="357" y="571" type="curve" smooth="yes"/>
    </contour>
  </outline>
</glyph>
<glyph name="N" format="2">
  <advance width="525"/>
  <unicode hex="004E"/>
  <outline>
    <contour>
      <point x="190" y="575" type="line" smooth="yes"/>
      <point x="178" y="608"/>
      <point x="163" y="611"/>
      <point x="136" y="611" type="curve" smooth="yes"/>
      <point x="68" y="611" type="line" smooth="yes"/>
      <point x="53" y="611"/>
      <point x="28" y="611"/>
      <point x="28" y="581" type="curve" smooth="yes"/>
      <point x="28" y="550"/>
      <point x="52" y="550"/>
      <point x="68" y="550" type="curve" smooth="yes"/>
      <point x="93" y="550" type="line"/>
      <point x="93" y="61" type="line"/>
      <point x="68" y="61" type="line" smooth="yes"/>
      <point x="53" y="61"/>
      <point x="28" y="61"/>
      <point x="28" y="31" type="curve" smooth="yes"/>
      <point x="28" y="0"/>
      <point x="52" y="0"/>
      <point x="68" y="0" type="curve" smooth="yes"/>
      <point x="174" y="0" type="line" smooth="yes"/>
      <point x="189" y="0"/>
      <point x="214" y="0"/>
      <point x="214" y="30" type="curve" smooth="yes"/>
      <point x="214" y="61"/>
      <point x="190" y="61"/>
      <point x="174" y="61" type="curve" smooth="yes"/>
      <point x="149" y="61" type="line"/>
      <point x="149" y="536" type="line"/>
      <point x="150" y="536" type="line"/>
      <point x="334" y="36" type="line" smooth="yes"/>
      <point x="347" y="1"/>
      <point x="363" y="0"/>
      <point x="389" y="0" type="curve" smooth="yes"/>
      <point x="419" y="0"/>
      <point x="431" y="3"/>
      <point x="431" y="41" type="curve" smooth="yes"/>
      <point x="431" y="550" type="line"/>
      <point x="456" y="550" type="line" smooth="yes"/>
      <point x="471" y="550"/>
      <point x="496" y="550"/>
      <point x="496" y="580" type="curve" smooth="yes"/>
      <point x="496" y="611"/>
      <point x="472" y="611"/>
      <point x="456" y="611" type="curve" smooth="yes"/>
      <point x="350" y="611" type="line" smooth="yes"/>
      <point x="334" y="611"/>
      <point x="310" y="611"/>
      <point x="310" y="580" type="curve" smooth="yes"/>
      <point x="310" y="550"/>
      <point x="335" y="550"/>
      <point x="350" y="550" type="curve" smooth="yes"/>
      <point x="375" y="550" type="line"/>
      <point x="375" y="75" type="line"/>
      <point x="374" y="75" type="line"/>
    </contour>
  </outline>
</glyph>
<glyph name="Y" format="2">
  <advance width="525"/>
  <unicode hex="0059"/>
  <outline>
    <contour>
      <point x="444" y="550" type="line"/>
      <point x="465" y="550" type="line" smooth="yes"/>
      <point x="480" y="550"/>
      <point x="505" y="550"/>
      <point x="505" y="580" type="curve" smooth="yes"/>
      <point x="505" y="611"/>
      <point x="481" y="611"/>
      <point x="465" y="611" type="curve" smooth="yes"/>
      <point x="361" y="611" type="line" smooth="yes"/>
      <point x="346" y="611"/>
      <point x="321" y="611"/>
      <point x="321" y="581" type="curve" smooth="yes"/>
      <point x="321" y="550"/>
      <point x="343" y="550"/>
      <point x="367" y="550" type="curve"/>
      <point x="262" y="314" type="line"/>
      <point x="248" y="365"/>
      <point x="167" y="529"/>
      <point x="157" y="550" type="curve"/>
      <point x="181" y="550"/>
      <point x="203" y="550"/>
      <point x="203" y="581" type="curve" smooth="yes"/>
      <point x="203" y="611"/>
      <point x="178" y="611"/>
      <point x="163" y="611" type="curve" smooth="yes"/>
      <point x="59" y="611" type="line" smooth="yes"/>
      <point x="44" y="611"/>
      <point x="19" y="611"/>
      <point x="19" y="581" type="curve" smooth="yes"/>
      <point x="19" y="550"/>
      <point x="43" y="550"/>
      <point x="59" y="550" type="curve" smooth="yes"/>
      <point x="80" y="550" type="line"/>
      <point x="228" y="244" type="line"/>
      <point x="228" y="61" type="line"/>
      <point x="203" y="61" type="line" smooth="yes"/>
      <point x="188" y="61"/>
      <point x="163" y="61"/>
      <point x="163" y="31" type="curve" smooth="yes"/>
      <point x="163" y="0"/>
      <point x="187" y="0"/>
      <point x="203" y="0" type="curve" smooth="yes"/>
      <point x="322" y="0" type="line" smooth="yes"/>
      <point x="337" y="0"/>
      <point x="362" y="0"/>
      <point x="362" y="30" type="curve" smooth="yes"/>
      <point x="362" y="61"/>
      <point x="338" y="61"/>
      <point x="322" y="61" type="curve" smooth="yes"/>
      <point x="297" y="61" type="line"/>
      <point x="297" y="244" type="line"/>
    </contour>
  </outline>
</glyph>
<glyph name="backslash" format="2">
  <advance width="525"/>
  <unicode hex="005C"/>
  <outline>
    <contour>
      <point x="128" y="667" type="line" smooth="yes"/>
      <point x="123" y="677"/>
      <point x="115" y="694"/>
      <point x="93" y="694" type="curve" smooth="yes"/>
      <point x="73" y="694"/>
      <point x="58" y="677"/>
      <point x="58" y="659" type="curve" smooth="yes"/>
      <point x="58" y="651"/>
      <point x="62" y="641"/>
      <point x="65" y="635" type="curve" smooth="yes"/>
      <point x="396" y="-56" type="line" smooth="yes"/>
      <point x="401" y="-66"/>
      <point x="409" y="-83"/>
      <point x="431" y="-83" type="curve" smooth="yes"/>
      <point x="451" y="-83"/>
      <point x="466" y="-66"/>
      <point x="466" y="-48" type="curve" smooth="yes"/>
      <point x="466" y="-40"/>
      <point x="462" y="-30"/>
      <point x="459" y="-24" type="curve" smooth="yes"/>
    </contour>
  </outline>
</glyph>
<glyph name="asciicircum" format="2">
  <advance width="525"/>
  <unicode hex="005E"/>
  <outline>
    <contour>
      <point x="283" y="604" type="line" smooth="yes"/>
      <point x="271" y="611"/>
      <point x="265" y="611"/>
      <point x="262" y="611" type="curve" smooth="yes"/>
      <point x="256" y="611"/>
      <point x="254" y="610"/>
      <point x="245" y="605" type="curve" smooth="yes"/>
      <point x="123" y="539" type="line" smooth="yes"/>
      <point x="108" y="531"/>
      <point x="100" y="527"/>
      <point x="100" y="510" type="curve" smooth="yes"/>
      <point x="100" y="503"/>
      <point x="110" y="471"/>
      <point x="134" y="471" type="curve" smooth="yes"/>
      <point x="138" y="471"/>
      <point x="144" y="472"/>
      <point x="156" y="479" type="curve" smooth="yes"/>
      <point x="262" y="541" type="line"/>
      <point x="368" y="480" type="line" smooth="yes"/>
      <point x="382" y="471"/>
      <point x="384" y="471"/>
      <point x="390" y="471" type="curve" smooth="yes"/>
      <point x="414" y="471"/>
      <point x="424" y="503"/>
      <point x="424" y="510" type="curve" smooth="yes"/>
      <point x="424" y="527"/>
      <point x="415" y="531"/>
      <point x="403" y="538" type="curve" smooth="yes"/>
    </contour>
  </outline>
</glyph>
<glyph name="i" format="2">
  <advance width="525"/>
  <unicode hex="0069"/>
  <outline>
    <contour>
      <point x="309" y="390" type="line" smooth="yes"/>
      <point x="309" y="421"/>
      <point x="303" y="431"/>
      <point x="269" y="431" type="curve" smooth="yes"/>
      <point x="127" y="431" type="line" smooth="yes"/>
      <point x="112" y="431"/>
      <point x="86" y="431"/>
      <point x="86" y="401" type="curve" smooth="yes"/>
      <point x="86" y="370"/>
      <point x="112" y="370"/>
      <point x="127" y="370" type="curve" smooth="yes"/>
      <point x="240" y="370" type="line"/>
      <point x="240" y="61" type="line"/>
      <point x="119" y="61" type="line" smooth="yes"/>
      <point x="103" y="61"/>
      <point x="78" y="61"/>
      <point x="78" y="30" type="curve" smooth="yes"/>
      <point x="78" y="0"/>
      <point x="104" y="0"/>
      <point x="119" y="0" type="curve" smooth="yes"/>
      <point x="414" y="0" type="line" smooth="yes"/>
      <point x="429" y="0"/>
      <point x="455" y="0"/>
      <point x="455" y="30" type="curve" smooth="yes"/>
      <point x="455" y="61"/>
      <point x="429" y="61"/>
      <point x="414" y="61" type="curve" smooth="yes"/>
      <point x="309" y="61" type="line"/>
    </contour>
    <contour>
      <point x="309" y="562" type="curve" smooth="yes"/>
      <point x="309" y="590"/>
      <point x="287" y="612"/>
      <point x="259" y="612" type="curve" smooth="yes"/>
      <point x="231" y="612"/>
      <point x="209" y="590"/>
      <point x="209" y="562" type="curve" smooth="yes"/>
      <point x="209" y="534"/>
      <point x="231" y="512"/>
      <point x="259" y="512" type="curve" smooth="yes"/>
      <point x="287" y="512"/>
      <point x="309" y="534"/>
    </contour>
  </outline>
</glyph>
<glyph name="l" format="2">
  <advance width="525"/>
  <unicode hex="006C"/>
  <outline>
    <contour>
      <point x="297" y="570" type="line" smooth="yes"/>
      <point x="297" y="601"/>
      <point x="291" y="611"/>
      <point x="257" y="611" type="curve" smooth="yes"/>
      <point x="99" y="611" type="line" smooth="yes"/>
      <point x="83" y="611"/>
      <point x="58" y="611"/>
      <point x="58" y="580" type="curve" smooth="yes"/>
      <point x="58" y="550"/>
      <point x="84" y="550"/>
      <point x="98" y="550" type="curve" smooth="yes"/>
      <point x="228" y="550" type="line"/>
      <point x="228" y="61" type="line"/>
      <point x="99" y="61" type="line" smooth="yes"/>
      <point x="83" y="61"/>
      <point x="58" y="61"/>
      <point x="58" y="30" type="curve" smooth="yes"/>
      <point x="58" y="0"/>
      <point x="84" y="0"/>
      <point x="98" y="0" type="curve" smooth="yes"/>
      <point x="427" y="0" type="line" smooth="yes"/>
      <point x="442" y="0"/>
      <point x="467" y="0"/>
      <point x="467" y="30" type="curve" smooth="yes"/>
      <point x="467" y="61"/>
      <point x="443" y="61"/>
      <point x="427" y="61" type="curve" smooth="yes"/>
      <point x="297" y="61" type="line"/>
    </contour>
  </outline>
</glyph>
<glyph name="p" format="2">
  <advance width="525"/>
  <unicode hex="0070"/>
  <outline>
    <contour>
      <point x="166" y="264" type="line" smooth="yes"/>
      <point x="166" y="323"/>
      <point x="224" y="376"/>
      <point x="287" y="376" type="curve" smooth="yes"/>
      <point x="361" y="376"/>
      <point x="419" y="303"/>
      <point x="419" y="216" type="curve" smooth="yes"/>
      <point x="419" y="120"/>
      <point x="349" y="55"/>
      <point x="279" y="55" type="curve" smooth="yes"/>
      <point x="201" y="55"/>
      <point x="166" y="143"/>
      <point x="166" y="191" type="curve" smooth="yes"/>
    </contour>
    <contour>
      <point x="166" y="45" type="line"/>
      <point x="207" y="3"/>
      <point x="250" y="-6"/>
      <point x="282" y="-6" type="curve" smooth="yes"/>
      <point x="391" y="-6"/>
      <point x="488" y="89"/>
      <point x="488" y="216" type="curve" smooth="yes"/>
      <point x="488" y="339"/>
      <point x="399" y="437"/>
      <point x="293" y="437" type="curve" smooth="yes"/>
      <point x="245" y="437"/>
      <point x="200" y="419"/>
      <point x="166" y="388" type="curve"/>
      <point x="166" y="417"/>
      <point x="164" y="431"/>
      <point x="126" y="431" type="curve" smooth="yes"/>
      <point x="53" y="431" type="line" smooth="yes"/>
      <point x="37" y="431"/>
      <point x="12" y="431"/>
      <point x="12" y="400" type="curve" smooth="yes"/>
      <point x="12" y="370"/>
      <point x="38" y="370"/>
      <point x="52" y="370" type="curve" smooth="yes"/>
      <point x="97" y="370" type="line"/>
      <point x="97" y="-161" type="line"/>
      <point x="53" y="-161" type="line" smooth="yes"/>
      <point x="37" y="-161"/>
      <point x="12" y="-161"/>
      <point x="12" y="-192" type="curve" smooth="yes"/>
      <point x="12" y="-222"/>
      <point x="38" y="-222"/>
      <point x="52" y="-222" type="curve" smooth="yes"/>
      <point x="211" y="-222" type="line" smooth="yes"/>
      <point x="225" y="-222"/>
      <point x="251" y="-222"/>
      <point x="251" y="-192" type="curve" smooth="yes"/>
      <point x="251" y="-161"/>
      <point x="226" y="-161"/>
      <point x="210" y="-161" type="curve" smooth="yes"/>
      <point x="166" y="-161" type="line"/>
    </contour>
  </outline>
</glyph>
<glyph name="q" format="2">
  <advance width="525"/>
  <unicode hex="0071"/>
  <outline>
    <contour>
      <point x="448" y="396" type="line" smooth="yes"/>
      <point x="448" y="415"/>
      <point x="448" y="437"/>
      <point x="414" y="437" type="curve" smooth="yes"/>
      <point x="379" y="437"/>
      <point x="379" y="420"/>
      <point x="379" y="382" type="curve"/>
      <point x="352" y="411"/>
      <point x="311" y="437"/>
      <point x="254" y="437" type="curve" smooth="yes"/>
      <point x="142" y="437"/>
      <point x="40" y="342"/>
      <point x="40" y="215" type="curve" smooth="yes"/>
      <point x="40" y="91"/>
      <point x="134" y="-6"/>
      <point x="244" y="-6" type="curve" smooth="yes"/>
      <point x="312" y="-6"/>
      <point x="358" y="31"/>
      <point x="379" y="54" type="curve"/>
      <point x="379" y="-161" type="line"/>
      <point x="330" y="-161" type="line" smooth="yes"/>
      <point x="315" y="-161"/>
      <point x="290" y="-161"/>
      <point x="290" y="-191" type="curve" smooth="yes"/>
      <point x="290" y="-222"/>
      <point x="314" y="-222"/>
      <point x="330" y="-222" type="curve" smooth="yes"/>
      <point x="497" y="-222" type="line" smooth="yes"/>
      <point x="512" y="-222"/>
      <point x="537" y="-222"/>
      <point x="537" y="-192" type="curve" smooth="yes"/>
      <point x="537" y="-161"/>
      <point x="513" y="-161"/>
      <point x="497" y="-161" type="curve" smooth="yes"/>
      <point x="448" y="-161" type="line"/>
    </contour>
    <contour>
      <point x="379" y="194" type="line" smooth="yes"/>
      <point x="379" y="137"/>
      <point x="330" y="55"/>
      <point x="248" y="55" type="curve" smooth="yes"/>
      <point x="174" y="55"/>
      <point x="109" y="125"/>
      <point x="109" y="215" type="curve" smooth="yes"/>
      <point x="109" y="307"/>
      <point x="179" y="376"/>
      <point x="259" y="376" type="curve" smooth="yes"/>
      <point x="334" y="376"/>
      <point x="379" y="299"/>
      <point x="379" y="233" type="curve" smooth="yes"/>
    </contour>
  </outline>
</glyph>
<glyph name="r" format="2">
  <advance width="525"/>
  <unicode hex="0072"/>
  <outline>
    <contour>
      <point x="222" y="186" type="line" smooth="yes"/>
      <point x="222" y="280"/>
      <point x="281" y="376"/>
      <point x="402" y="376" type="curve"/>
      <point x="403" y="352"/>
      <point x="420" y="332"/>
      <point x="445" y="332" type="curve" smooth="yes"/>
      <point x="467" y="332"/>
      <point x="487" y="348"/>
      <point x="487" y="375" type="curve" smooth="yes"/>
      <point x="487" y="395"/>
      <point x="475" y="437"/>
      <point x="392" y="437" type="curve" smooth="yes"/>
      <point x="341" y="437"/>
      <point x="277" y="419"/>
      <point x="222" y="356" type="curve"/>
      <point x="222" y="390" type="line" smooth="yes"/>
      <point x="222" y="421"/>
      <point x="216" y="431"/>
      <point x="182" y="431" type="curve" smooth="yes"/>
      <point x="72" y="431" type="line" smooth="yes"/>
      <point x="57" y="431"/>
      <point x="32" y="431"/>
      <point x="32" y="401" type="curve" smooth="yes"/>
      <point x="32" y="370"/>
      <point x="56" y="370"/>
      <point x="72" y="370" type="curve" smooth="yes"/>
      <point x="153" y="370" type="line"/>
      <point x="153" y="61" type="line"/>
      <point x="72" y="61" type="line" smooth="yes"/>
      <point x="57" y="61"/>
      <point x="32" y="61"/>
      <point x="32" y="31" type="curve" smooth="yes"/>
      <point x="32" y="0"/>
      <point x="56" y="0"/>
      <point x="72" y="0" type="curve" smooth="yes"/>
      <point x="333" y="0" type="line" smooth="yes"/>
      <point x="348" y="0"/>
      <point x="374" y="0"/>
      <point x="374" y="30" type="curve" smooth="yes"/>
      <point x="374" y="61"/>
      <point x="348" y="61"/>
      <point x="333" y="61" type="curve" smooth="yes"/>
      <point x="222" y="61" type="line"/>
    </contour>
  </outline>
</glyph>
<glyph name="z" format="2">
  <advance width="525"/>
  <unicode hex="007A"/>
  <outline>
    <contour>
      <point x="449" y="357" type="line" smooth="yes"/>
      <point x="470" y="377"/>
      <point x="471" y="380"/>
      <point x="471" y="397" type="curve" smooth="yes"/>
      <point x="471" y="431"/>
      <point x="449" y="431"/>
      <point x="430" y="431" type="curve" smooth="yes"/>
      <point x="90" y="431" type="line" smooth="yes"/>
      <point x="57" y="431"/>
      <point x="49" y="423"/>
      <point x="49" y="390" type="curve" smooth="yes"/>
      <point x="49" y="344" type="line" smooth="yes"/>
      <point x="49" y="325"/>
      <point x="49" y="303"/>
      <point x="83" y="303" type="curve" smooth="yes"/>
      <point x="118" y="303"/>
      <point x="118" y="324"/>
      <point x="118" y="344" type="curve" smooth="yes"/>
      <point x="118" y="370" type="line"/>
      <point x="367" y="370" type="line"/>
      <point x="55" y="74" type="line" smooth="yes"/>
      <point x="34" y="54"/>
      <point x="33" y="51"/>
      <point x="33" y="34" type="curve" smooth="yes"/>
      <point x="33" y="0"/>
      <point x="55" y="0"/>
      <point x="74" y="0" type="curve" smooth="yes"/>
      <point x="453" y="0" type="line"/>
      <point x="475" y="6"/>
      <point x="475" y="26"/>
      <point x="475" y="41" type="curve" smooth="yes"/>
      <point x="475" y="99" type="line" smooth="yes"/>
      <point x="475" y="118"/>
      <point x="475" y="140"/>
      <point x="441" y="140" type="curve" smooth="yes"/>
      <point x="406" y="140"/>
      <point x="406" y="119"/>
      <point x="406" y="99" type="curve" smooth="yes"/>
      <point x="406" y="61" type="line"/>
      <point x="137" y="61" type="line"/>
    </contour>
  </outline>
</glyph>
<glyph name="bar" format="2">
  <advance width="525"/>
  <unicode hex="007C"/>
  <outline>
    <contour>
      <point x="297" y="647" type="line" smooth="yes"/>
      <point x="297" y="659"/>
      <point x="297" y="694"/>
      <point x="262" y="694" type="curve" smooth="yes"/>
      <point x="227" y="694"/>
      <point x="227" y="659"/>
      <point x="227" y="647" type="curve" smooth="yes"/>
      <point x="227" y="-36" type="line" smooth="yes"/>
      <point x="227" y="-48"/>
      <point x="227" y="-83"/>
      <point x="262" y="-83" type="curve" smooth="yes"/>
      <point x="297" y="-83"/>
      <point x="297" y="-48"/>
      <point x="297" y="-36" type="curve" smooth="yes"/>
    </contour>
  </outline>
</glyph>
<glyph name="braceright" format="2">
  <advance width="525"/>
  <unicode hex="007D"/>
  <outline>
    <contour>
      <point x="297" y="562" type="line" smooth="yes"/>
      <point x="297" y="590"/>
      <point x="297" y="635"/>
      <point x="245" y="664" type="curve" smooth="yes"/>
      <point x="197" y="690"/>
      <point x="134" y="694"/>
      <point x="99" y="694" type="curve" smooth="yes"/>
      <point x="82" y="694"/>
      <point x="57" y="694"/>
      <point x="57" y="663" type="curve" smooth="yes"/>
      <point x="57" y="637"/>
      <point x="76" y="633"/>
      <point x="90" y="633" type="curve" smooth="yes"/>
      <point x="228" y="631"/>
      <point x="228" y="595"/>
      <point x="228" y="562" type="curve" smooth="yes"/>
      <point x="228" y="401" type="line" smooth="yes"/>
      <point x="228" y="361"/>
      <point x="243" y="329"/>
      <point x="286" y="306" type="curve"/>
      <point x="230" y="274"/>
      <point x="228" y="227"/>
      <point x="228" y="223" type="curve" smooth="yes"/>
      <point x="228" y="45" type="line" smooth="yes"/>
      <point x="228" y="16"/>
      <point x="228" y="-20"/>
      <point x="83" y="-22" type="curve"/>
      <point x="77" y="-22"/>
      <point x="57" y="-28"/>
      <point x="57" y="-52" type="curve" smooth="yes"/>
      <point x="57" y="-83"/>
      <point x="82" y="-83"/>
      <point x="99" y="-83" type="curve" smooth="yes"/>
      <point x="186" y="-83"/>
      <point x="281" y="-63"/>
      <point x="296" y="18" type="curve" smooth="yes"/>
      <point x="297" y="24"/>
      <point x="297" y="74"/>
      <point x="297" y="102" type="curve" smooth="yes"/>
      <point x="297" y="192" type="line" smooth="yes"/>
      <point x="297" y="228"/>
      <point x="297" y="243"/>
      <point x="333" y="259" type="curve" smooth="yes"/>
      <point x="369" y="274"/>
      <point x="417" y="275"/>
      <point x="441" y="275" type="curve" smooth="yes"/>
      <point x="447" y="275"/>
      <point x="467" y="281"/>
      <point x="467" y="305" type="curve" smooth="yes"/>
      <point x="467" y="335"/>
      <point x="443" y="336"/>
      <point x="433" y="336" type="curve" smooth="yes"/>
      <point x="409" y="337"/>
      <point x="299" y="339"/>
      <point x="297" y="395" type="curve" smooth="yes"/>
    </contour>
  </outline>
</glyph>
<glyph name="dieresis" format="2">
  <advance width="525"/>
  <unicode hex="00A8"/>
  <outline>
    <contour>
      <point x="210" y="562" type="curve" smooth="yes"/>
      <point x="210" y="594"/>
      <point x="185" y="612"/>
      <point x="160" y="612" type="curve" smooth="yes"/>
      <point x="130" y="612"/>
      <point x="110" y="586"/>
      <point x="110" y="562" type="curve" smooth="yes"/>
      <point x="110" y="538"/>
      <point x="130" y="512"/>
      <point x="160" y="512" type="curve" smooth="yes"/>
      <point x="185" y="512"/>
      <point x="210" y="530"/>
    </contour>
    <contour>
      <point x="414" y="562" type="curve" smooth="yes"/>
      <point x="414" y="586"/>
      <point x="394" y="612"/>
      <point x="364" y="612" type="curve" smooth="yes"/>
      <point x="339" y="612"/>
      <point x="314" y="594"/>
      <point x="314" y="562" type="curve" smooth="yes"/>
      <point x="314" y="530"/>
      <point x="339" y="512"/>
      <point x="364" y="512" type="curve" smooth="yes"/>
      <point x="394" y="512"/>
      <point x="414" y="538"/>
    </contour>
  </outline>
</glyph>
<glyph name="macron" format="2">
  <advance width="525"/>
  <unicode hex="00AF"/>
  <outline>
    <contour>
      <point x="411" y="514" type="line" smooth="yes"/>
      <point x="427" y="514"/>
      <point x="451" y="514"/>
      <point x="451" y="545" type="curve" smooth="yes"/>
      <point x="451" y="577"/>
      <point x="428" y="577"/>
      <point x="411" y="577" type="curve" smooth="yes"/>
      <point x="113" y="577" type="line" smooth="yes"/>
      <point x="97" y="577"/>
      <point x="73" y="577"/>
      <point x="73" y="546" type="curve" smooth="yes"/>
      <point x="73" y="514"/>
      <point x="97" y="514"/>
      <point x="114" y="514" type="curve" smooth="yes"/>
    </contour>
  </outline>
</glyph>
<glyph name="cedilla" format="2">
  <advance width="525"/>
  <unicode hex="00B8"/>
  <outline>
    <contour>
      <point x="260" y="-24" type="line" smooth="yes"/>
      <point x="260" y="-44"/>
      <point x="260" y="-64"/>
      <point x="292" y="-66" type="curve" smooth="yes"/>
      <point x="336" y="-68"/>
      <point x="359" y="-86"/>
      <point x="359" y="-106" type="curve" smooth="yes"/>
      <point x="359" y="-146"/>
      <point x="260" y="-146"/>
      <point x="222" y="-146" type="curve" smooth="yes"/>
      <point x="184" y="-146"/>
      <point x="162" y="-146"/>
      <point x="162" y="-177" type="curve" smooth="yes"/>
      <point x="162" y="-200"/>
      <point x="178" y="-208"/>
      <point x="193" y="-208" type="curve" smooth="yes"/>
      <point x="288" y="-208"/>
      <point x="428" y="-208"/>
      <point x="428" y="-106" type="curve" smooth="yes"/>
      <point x="428" y="-67"/>
      <point x="400" y="-23"/>
      <point x="329" y="-9" type="curve"/>
      <point x="329" y="28"/>
      <point x="329" y="45"/>
      <point x="295" y="45" type="curve" smooth="yes"/>
      <point x="260" y="45"/>
      <point x="260" y="23"/>
      <point x="260" y="3" type="curve" smooth="yes"/>
    </contour>
  </outline>
</glyph>
<glyph name="questiondown" format="2">
  <advance width="525"/>
  <unicode hex="00BF"/>
  <outline>
    <contour>
      <point x="207" y="147" type="line" smooth="yes"/>
      <point x="207" y="115"/>
      <point x="203" y="49"/>
      <point x="121" y="-6" type="curve" smooth="yes"/>
      <point x="104" y="-18"/>
      <point x="62" y="-46"/>
      <point x="62" y="-104" type="curve" smooth="yes"/>
      <point x="62" y="-128"/>
      <point x="70" y="-228"/>
      <point x="248" y="-228" type="curve" smooth="yes"/>
      <point x="280" y="-228"/>
      <point x="462" y="-228"/>
      <point x="462" y="-106" type="curve" smooth="yes"/>
      <point x="462" y="-74"/>
      <point x="438" y="-59"/>
      <point x="417" y="-59" type="curve" smooth="yes"/>
      <point x="396" y="-59"/>
      <point x="373" y="-76"/>
      <point x="373" y="-104" type="curve" smooth="yes"/>
      <point x="373" y="-114"/>
      <point x="375" y="-125"/>
      <point x="382" y="-133" type="curve"/>
      <point x="348" y="-167"/>
      <point x="265" y="-167"/>
      <point x="249" y="-167" type="curve" smooth="yes"/>
      <point x="229" y="-167"/>
      <point x="131" y="-167"/>
      <point x="131" y="-104" type="curve" smooth="yes"/>
      <point x="131" y="-77"/>
      <point x="150" y="-64"/>
      <point x="162" y="-56" type="curve" smooth="yes"/>
      <point x="287" y="28"/>
      <point x="287" y="113"/>
      <point x="287" y="153" type="curve" smooth="yes"/>
      <point x="287" y="192"/>
      <point x="287" y="205"/>
      <point x="247" y="205" type="curve" smooth="yes"/>
      <point x="217" y="205"/>
      <point x="207" y="200"/>
      <point x="207" y="164" type="curve" smooth="yes"/>
    </contour>
    <contour>
      <point x="297" y="339" type="curve" smooth="yes"/>
      <point x="297" y="367"/>
      <point x="275" y="389"/>
      <point x="247" y="389" type="curve" smooth="yes"/>
      <point x="219" y="389"/>
      <point x="197" y="367"/>
      <point x="197" y="339" type="curve" smooth="yes"/>
      <point x="197" y="311"/>
      <point x="219" y="289"/>
      <point x="247" y="289" type="curve" smooth="yes"/>
      <point x="275" y="289"/>
      <point x="297" y="311"/>
    </contour>
  </outline>
</glyph>
<glyph name="oslash" format="2">
  <advance width="525"/>
  <unicode hex="00F8"/>
  <outline>
    <contour>
      <point x="474" y="520" type="line" smooth="yes"/>
      <point x="481" y="532"/>
      <point x="481" y="538"/>
      <point x="481" y="541" type="curve" smooth="yes"/>
      <point x="481" y="561"/>
      <point x="461" y="571"/>
      <point x="449" y="571" type="curve" smooth="yes"/>
      <point x="433" y="571"/>
      <point x="427" y="561"/>
      <point x="422" y="552" type="curve" smooth="yes"/>
      <point x="347" y="422" type="line"/>
      <point x="330" y="429"/>
      <point x="302" y="440"/>
      <point x="262" y="440" type="curve" smooth="yes"/>
      <point x="141" y="440"/>
      <point x="45" y="338"/>
      <point x="45" y="216" type="curve" smooth="yes"/>
      <point x="45" y="158"/>
      <point x="67" y="93"/>
      <point x="126" y="42" type="curve"/>
      <point x="60" y="-72" type="line" smooth="yes"/>
      <point x="53" y="-84"/>
      <point x="43" y="-102"/>
      <point x="43" y="-110" type="curve" smooth="yes"/>
      <point x="43" y="-130"/>
      <point x="63" y="-140"/>
      <point x="75" y="-140" type="curve" smooth="yes"/>
      <point x="91" y="-140"/>
      <point x="98" y="-129"/>
      <point x="102" y="-121" type="curve"/>
      <point x="120" y="-92"/>
      <point x="162" y="-18"/>
      <point x="179" y="11" type="curve"/>
      <point x="213" y="-4"/>
      <point x="244" y="-6"/>
      <point x="262" y="-6" type="curve" smooth="yes"/>
      <point x="380" y="-6"/>
      <point x="479" y="92"/>
      <point x="479" y="216" type="curve" smooth="yes"/>
      <point x="479" y="283"/>
      <point x="448" y="345"/>
      <point x="399" y="390" type="curve"/>
    </contour>
    <contour>
      <point x="156" y="94" type="line"/>
      <point x="112" y="135"/>
      <point x="101" y="181"/>
      <point x="101" y="216" type="curve" smooth="yes"/>
      <point x="101" y="306"/>
      <point x="174" y="379"/>
      <point x="262" y="379" type="curve" smooth="yes"/>
      <point x="290" y="379"/>
      <point x="296" y="377"/>
      <point x="316" y="370" type="curve"/>
    </contour>
    <contour>
      <point x="368" y="338" type="line"/>
      <point x="410" y="301"/>
      <point x="423" y="252"/>
      <point x="423" y="216" type="curve" smooth="yes"/>
      <point x="423" y="126"/>
      <point x="350" y="55"/>
      <point x="262" y="55" type="curve" smooth="yes"/>
      <point x="235" y="55"/>
      <point x="229" y="57"/>
      <point x="210" y="63" type="curve"/>
    </contour>
  </outline>
</glyph>
<glyph name="oe" format="2">
  <advance width="525"/>
  <unicode hex="0153"/>
  <outline>
    <contour>
      <point x="465" y="191" type="line" smooth="yes"/>
      <point x="500" y="191"/>
      <point x="505" y="202"/>
      <point x="505" y="233" type="curve" smooth="yes"/>
      <point x="505" y="366"/>
      <point x="456" y="440"/>
      <point x="388" y="440" type="curve" smooth="yes"/>
      <point x="336" y="440"/>
      <point x="301" y="396"/>
      <point x="280" y="353" type="curve"/>
      <point x="265" y="382"/>
      <point x="227" y="440"/>
      <point x="164" y="440" type="curve" smooth="yes"/>
      <point x="85" y="440"/>
      <point x="19" y="346"/>
      <point x="19" y="217" type="curve" smooth="yes"/>
      <point x="19" y="88"/>
      <point x="85" y="-6"/>
      <point x="164" y="-6" type="curve" smooth="yes"/>
      <point x="223" y="-6"/>
      <point x="262" y="45"/>
      <point x="281" y="83" type="curve"/>
      <point x="299" y="46"/>
      <point x="338" y="-6"/>
      <point x="398" y="-6" type="curve" smooth="yes"/>
      <point x="479" y="-6"/>
      <point x="505" y="90"/>
      <point x="505" y="108" type="curve" smooth="yes"/>
      <point x="505" y="126"/>
      <point x="491" y="137"/>
      <point x="477" y="137" type="curve" smooth="yes"/>
      <point x="455" y="137"/>
      <point x="450" y="117"/>
      <point x="449" y="112" type="curve" smooth="yes"/>
      <point x="441" y="76"/>
      <point x="424" y="55"/>
      <point x="402" y="55" type="curve" smooth="yes"/>
      <point x="359" y="55"/>
      <point x="317" y="114"/>
      <point x="310" y="191" type="curve"/>
    </contour>
    <contour>
      <point x="311" y="251" type="line"/>
      <point x="318" y="322"/>
      <point x="354" y="379"/>
      <point x="388" y="379" type="curve" smooth="yes"/>
      <point x="411" y="379"/>
      <point x="443" y="352"/>
      <point x="448" y="251" type="curve"/>
    </contour>
    <contour>
      <point x="164" y="55" type="curve" smooth="yes"/>
      <point x="120" y="55"/>
      <point x="75" y="127"/>
      <point x="75" y="223" type="curve" smooth="yes"/>
      <point x="75" y="318"/>
      <point x="121" y="379"/>
      <point x="164" y="379" type="curve" smooth="yes"/>
      <point x="207" y="379"/>
      <point x="253" y="317"/>
      <point x="253" y="223" type="curve" smooth="yes"/>
      <point x="253" y="127"/>
      <point x="208" y="55"/>
    </contour>
  </outline>
</glyph>
<glyph name="Lambda" format="2">
  <advance width="525"/>
  <unicode hex="039B"/>
  <outline>
    <contour>
      <point x="317" y="586" type="line" smooth="yes"/>
      <point x="308" y="623"/>
      <point x="288" y="623"/>
      <point x="267" y="623" type="curve" smooth="yes"/>
      <point x="257" y="623" type="line" smooth="yes"/>
      <point x="237" y="623"/>
      <point x="216" y="623"/>
      <point x="208" y="589" type="curve" smooth="yes"/>
      <point x="86" y="61" type="line"/>
      <point x="50" y="61"/>
      <point x="29" y="61"/>
      <point x="29" y="30" type="curve" smooth="yes"/>
      <point x="29" y="0"/>
      <point x="55" y="0"/>
      <point x="70" y="0" type="curve" smooth="yes"/>
      <point x="178" y="0" type="line" smooth="yes"/>
      <point x="193" y="0"/>
      <point x="219" y="0"/>
      <point x="219" y="30" type="curve" smooth="yes"/>
      <point x="219" y="61"/>
      <point x="194" y="61"/>
      <point x="178" y="61" type="curve" smooth="yes"/>
      <point x="157" y="61" type="line"/>
      <point x="232" y="392" type="line" smooth="yes"/>
      <point x="243" y="442"/>
      <point x="257" y="503"/>
      <point x="261" y="538" type="curve"/>
      <point x="262" y="538" type="line"/>
      <point x="266" y="510"/>
      <point x="272" y="484"/>
      <point x="279" y="452" type="curve" smooth="yes"/>
      <point x="367" y="61" type="line"/>
      <point x="346" y="61" type="line" smooth="yes"/>
      <point x="331" y="61"/>
      <point x="305" y="61"/>
      <point x="305" y="31" type="curve" smooth="yes"/>
      <point x="305" y="0"/>
      <point x="330" y="0"/>
      <point x="346" y="0" type="curve" smooth="yes"/>
      <point x="454" y="0" type="line" smooth="yes"/>
      <point x="469" y="0"/>
      <point x="495" y="0"/>
      <point x="495" y="30" type="curve" smooth="yes"/>
      <point x="495" y="61"/>
      <point x="474" y="61"/>
      <point x="438" y="61" type="curve"/>
    </contour>
  </outline>
</glyph>
<glyph name="Sigma" format="2">
  <advance width="525"/>
  <unicode hex="03A3"/>
  <outline>
    <contour>
      <point x="263" y="283" type="line" smooth="yes"/>
      <point x="272" y="298"/>
      <point x="272" y="300"/>
      <point x="272" y="312" type="curve"/>
      <point x="132" y="550" type="line"/>
      <point x="415" y="550" type="line"/>
      <point x="415" y="497" type="line" smooth="yes"/>
      <point x="415" y="478"/>
      <point x="415" y="456"/>
      <point x="449" y="456" type="curve" smooth="yes"/>
      <point x="484" y="456"/>
      <point x="484" y="477"/>
      <point x="484" y="497" type="curve" smooth="yes"/>
      <point x="484" y="570" type="line" smooth="yes"/>
      <point x="484" y="601"/>
      <point x="478" y="611"/>
      <point x="444" y="611" type="curve" smooth="yes"/>
      <point x="81" y="611" type="line" smooth="yes"/>
      <point x="65" y="611"/>
      <point x="40" y="611"/>
      <point x="40" y="580" type="curve" smooth="yes"/>
      <point x="40" y="575"/>
      <point x="40" y="569"/>
      <point x="48" y="556" type="curve" smooth="yes"/>
      <point x="197" y="305" type="line"/>
      <point x="49" y="50" type="line" smooth="yes"/>
      <point x="40" y="36"/>
      <point x="40" y="34"/>
      <point x="40" y="28" type="curve" smooth="yes"/>
      <point x="40" y="0"/>
      <point x="68" y="0"/>
      <point x="81" y="0" type="curve" smooth="yes"/>
      <point x="444" y="0" type="line" smooth="yes"/>
      <point x="477" y="0"/>
      <point x="484" y="9"/>
      <point x="484" y="41" type="curve" smooth="yes"/>
      <point x="484" y="116" type="line" smooth="yes"/>
      <point x="484" y="135"/>
      <point x="484" y="157"/>
      <point x="450" y="157" type="curve" smooth="yes"/>
      <point x="415" y="157"/>
      <point x="415" y="136"/>
      <point x="415" y="116" type="curve" smooth="yes"/>
      <point x="415" y="63" type="line"/>
      <point x="136" y="63" type="line"/>
    </contour>
  </outline>
</glyph>
<glyph name="Upsilon" format="2">
  <advance width="525"/>
  <unicode hex="03A5"/>
  <outline>
    <contour>
      <point x="297" y="356" type="line" smooth="yes"/>
      <point x="297" y="409"/>
      <point x="297" y="570"/>
      <point x="370" y="570" type="curve" smooth="yes"/>
      <point x="407" y="570"/>
      <point x="416" y="527"/>
      <point x="417" y="494" type="curve" smooth="yes"/>
      <point x="418" y="461"/>
      <point x="439" y="461"/>
      <point x="452" y="461" type="curve" smooth="yes"/>
      <point x="461" y="461"/>
      <point x="486" y="461"/>
      <point x="486" y="493" type="curve" smooth="yes"/>
      <point x="486" y="550"/>
      <point x="444" y="622"/>
      <point x="371" y="622" type="curve" smooth="yes"/>
      <point x="312" y="622"/>
      <point x="275" y="578"/>
      <point x="263" y="480" type="curve"/>
      <point x="262" y="480" type="line"/>
      <point x="248" y="585"/>
      <point x="208" y="622"/>
      <point x="153" y="622" type="curve" smooth="yes"/>
      <point x="81" y="622"/>
      <point x="38" y="551"/>
      <point x="38" y="493" type="curve" smooth="yes"/>
      <point x="38" y="461"/>
      <point x="63" y="461"/>
      <point x="72" y="461" type="curve" smooth="yes"/>
      <point x="83" y="461"/>
      <point x="106" y="461"/>
      <point x="107" y="492" type="curve" smooth="yes"/>
      <point x="108" y="530"/>
      <point x="118" y="570"/>
      <point x="154" y="570" type="curve" smooth="yes"/>
      <point x="228" y="570"/>
      <point x="228" y="408"/>
      <point x="228" y="356" type="curve" smooth="yes"/>
      <point x="228" y="61" type="line"/>
      <point x="193" y="61" type="line" smooth="yes"/>
      <point x="177" y="61"/>
      <point x="152" y="61"/>
      <point x="152" y="30" type="curve" smooth="yes"/>
      <point x="152" y="0"/>
      <point x="178" y="0"/>
      <point x="193" y="0" type="curve" smooth="yes"/>
      <point x="332" y="0" type="line" smooth="yes"/>
      <point x="347" y="0"/>
      <point x="373" y="0"/>
      <point x="373" y="30" type="curve" smooth="yes"/>
      <point x="373" y="61"/>
      <point x="348" y="61"/>
      <point x="332" y="61" type="curve" smooth="yes"/>
      <point x="297" y="61" type="line"/>
    </contour>
  </outline>
</glyph>
<glyph name="Phi" format="2">
  <advance width="525"/>
  <unicode hex="03A6"/>
  <outline>
    <contour>
      <point x="187" y="611" type="line" smooth="yes"/>
      <point x="172" y="611"/>
      <point x="146" y="611"/>
      <point x="146" y="581" type="curve" smooth="yes"/>
      <point x="146" y="550"/>
      <point x="172" y="550"/>
      <point x="187" y="550" type="curve" smooth="yes"/>
      <point x="228" y="550" type="line"/>
      <point x="228" y="456" type="line"/>
      <point x="117" y="445"/>
      <point x="40" y="378"/>
      <point x="40" y="306" type="curve" smooth="yes"/>
      <point x="40" y="230"/>
      <point x="121" y="165"/>
      <point x="228" y="155" type="curve"/>
      <point x="228" y="61" type="line"/>
      <point x="187" y="61" type="line" smooth="yes"/>
      <point x="172" y="61"/>
      <point x="146" y="61"/>
      <point x="146" y="31" type="curve" smooth="yes"/>
      <point x="146" y="0"/>
      <point x="172" y="0"/>
      <point x="187" y="0" type="curve" smooth="yes"/>
      <point x="338" y="0" type="line" smooth="yes"/>
      <point x="353" y="0"/>
      <point x="379" y="0"/>
      <point x="379" y="30" type="curve" smooth="yes"/>
      <point x="379" y="61"/>
      <point x="353" y="61"/>
      <point x="338" y="61" type="curve" smooth="yes"/>
      <point x="297" y="61" type="line"/>
      <point x="297" y="155" type="line"/>
      <point x="408" y="167"/>
      <point x="484" y="234"/>
      <point x="484" y="305" type="curve" smooth="yes"/>
      <point x="484" y="380"/>
      <point x="405" y="445"/>
      <point x="297" y="456" type="curve"/>
      <point x="297" y="550" type="line"/>
      <point x="338" y="550" type="line" smooth="yes"/>
      <point x="353" y="550"/>
      <point x="379" y="550"/>
      <point x="379" y="580" type="curve" smooth="yes"/>
      <point x="379" y="611"/>
      <point x="353" y="611"/>
      <point x="338" y="611" type="curve" smooth="yes"/>
    </contour>
    <contour>
      <point x="228" y="216" type="line"/>
      <point x="156" y="226"/>
      <point x="109" y="264"/>
      <point x="109" y="305" type="curve" smooth="yes"/>
      <point x="109" y="349"/>
      <point x="160" y="386"/>
      <point x="228" y="395" type="curve"/>
    </contour>
    <contour>
      <point x="297" y="395" type="line"/>
      <point x="364" y="386"/>
      <point x="415" y="349"/>
      <point x="415" y="306" type="curve" smooth="yes"/>
      <point x="415" y="259"/>
      <point x="359" y="225"/>
      <point x="297" y="216" type="curve"/>
    </contour>
  </outline>
</glyph>
<glyph name="Psi" format="2">
  <advance width="525"/>
  <unicode hex="03A8"/>
  <outline>
    <contour>
      <point x="297" y="550" type="line"/>
      <point x="332" y="550" type="line" smooth="yes"/>
      <point x="347" y="550"/>
      <point x="373" y="550"/>
      <point x="373" y="580" type="curve" smooth="yes"/>
      <point x="373" y="611"/>
      <point x="348" y="611"/>
      <point x="332" y="611" type="curve" smooth="yes"/>
      <point x="193" y="611" type="line" smooth="yes"/>
      <point x="177" y="611"/>
      <point x="152" y="611"/>
      <point x="152" y="580" type="curve" smooth="yes"/>
      <point x="152" y="550"/>
      <point x="178" y="550"/>
      <point x="193" y="550" type="curve" smooth="yes"/>
      <point x="228" y="550" type="line"/>
      <point x="228" y="219" type="line"/>
      <point x="157" y="240"/>
      <point x="147" y="311"/>
      <point x="147" y="371" type="curve" smooth="yes"/>
      <point x="147" y="422"/>
      <point x="139" y="483"/>
      <point x="74" y="483" type="curve" smooth="yes"/>
      <point x="64" y="483"/>
      <point x="38" y="483"/>
      <point x="38" y="452" type="curve" smooth="yes"/>
      <point x="38" y="428"/>
      <point x="56" y="424"/>
      <point x="64" y="422" type="curve" smooth="yes"/>
      <point x="77" y="419"/>
      <point x="78" y="385"/>
      <point x="78" y="358" type="curve" smooth="yes"/>
      <point x="79" y="283"/>
      <point x="107" y="177"/>
      <point x="228" y="156" type="curve"/>
      <point x="228" y="61" type="line"/>
      <point x="193" y="61" type="line" smooth="yes"/>
      <point x="177" y="61"/>
      <point x="152" y="61"/>
      <point x="152" y="30" type="curve" smooth="yes"/>
      <point x="152" y="0"/>
      <point x="178" y="0"/>
      <point x="193" y="0" type="curve" smooth="yes"/>
      <point x="332" y="0" type="line" smooth="yes"/>
      <point x="347" y="0"/>
      <point x="373" y="0"/>
      <point x="373" y="30" type="curve" smooth="yes"/>
      <point x="373" y="61"/>
      <point x="348" y="61"/>
      <point x="332" y="61" type="curve" smooth="yes"/>
      <point x="297" y="61" type="line"/>
      <point x="297" y="156" type="line"/>
      <point x="418" y="177"/>
      <point x="445" y="280"/>
      <point x="446" y="368" type="curve" smooth="yes"/>
      <point x="446" y="382"/>
      <point x="446" y="419"/>
      <point x="460" y="422" type="curve" smooth="yes"/>
      <point x="468" y="424"/>
      <point x="486" y="428"/>
      <point x="486" y="452" type="curve" smooth="yes"/>
      <point x="486" y="483"/>
      <point x="460" y="483"/>
      <point x="450" y="483" type="curve" smooth="yes"/>
      <point x="379" y="483"/>
      <point x="377" y="409"/>
      <point x="377" y="370" type="curve" smooth="yes"/>
      <point x="377" y="315"/>
      <point x="368" y="241"/>
      <point x="297" y="219" type="curve"/>
    </contour>
  </outline>
</glyph>
<glyph name="Omega" format="2">
  <advance width="525"/>
  <unicode hex="2126"/>
  <outline>
    <contour>
      <point x="492" y="67" type="line" smooth="yes"/>
      <point x="492" y="81"/>
      <point x="492" y="108"/>
      <point x="464" y="108" type="curve" smooth="yes"/>
      <point x="436" y="108"/>
      <point x="436" y="82"/>
      <point x="436" y="61" type="curve"/>
      <point x="372" y="61" type="line"/>
      <point x="379" y="110"/>
      <point x="395" y="145"/>
      <point x="427" y="212" type="curve" smooth="yes"/>
      <point x="456" y="275"/>
      <point x="484" y="337"/>
      <point x="484" y="406" type="curve" smooth="yes"/>
      <point x="484" y="528"/>
      <point x="383" y="622"/>
      <point x="262" y="622" type="curve" smooth="yes"/>
      <point x="141" y="622"/>
      <point x="40" y="528"/>
      <point x="40" y="406" type="curve" smooth="yes"/>
      <point x="40" y="335"/>
      <point x="70" y="270"/>
      <point x="100" y="205" type="curve" smooth="yes"/>
      <point x="131" y="140"/>
      <point x="145" y="106"/>
      <point x="152" y="61" type="curve"/>
      <point x="88" y="61" type="line"/>
      <point x="88" y="82"/>
      <point x="88" y="108"/>
      <point x="60" y="108" type="curve" smooth="yes"/>
      <point x="32" y="108"/>
      <point x="32" y="81"/>
      <point x="32" y="67" type="curve" smooth="yes"/>
      <point x="32" y="41" type="line" smooth="yes"/>
      <point x="32" y="8"/>
      <point x="40" y="0"/>
      <point x="73" y="0" type="curve" smooth="yes"/>
      <point x="176" y="0" type="line" smooth="yes"/>
      <point x="195" y="0"/>
      <point x="216" y="0"/>
      <point x="216" y="35" type="curve" smooth="yes"/>
      <point x="216" y="100"/>
      <point x="186" y="170"/>
      <point x="161" y="226" type="curve" smooth="yes"/>
      <point x="133" y="293"/>
      <point x="109" y="348"/>
      <point x="109" y="406" type="curve" smooth="yes"/>
      <point x="109" y="496"/>
      <point x="181" y="561"/>
      <point x="262" y="561" type="curve" smooth="yes"/>
      <point x="343" y="561"/>
      <point x="415" y="496"/>
      <point x="415" y="406" type="curve" smooth="yes"/>
      <point x="415" y="347"/>
      <point x="392" y="293"/>
      <point x="361" y="221" type="curve" smooth="yes"/>
      <point x="340" y="173"/>
      <point x="308" y="100"/>
      <point x="308" y="35" type="curve" smooth="yes"/>
      <point x="308" y="0"/>
      <point x="330" y="0"/>
      <point x="349" y="0" type="curve" smooth="yes"/>
      <point x="452" y="0" type="line" smooth="yes"/>
      <point x="485" y="0"/>
      <point x="492" y="9"/>
      <point x="492" y="41" type="curve" smooth="yes"/>
    </contour>
  </outline>
</glyph>
<glyph name="Delta" format="2">
  <advance width="525"/>
  <unicode hex="2206"/>
  <outline>
    <contour>
      <point x="317" y="587" type="line" smooth="yes"/>
      <point x="307" y="620"/>
      <point x="295" y="623"/>
      <point x="262" y="623" type="curve" smooth="yes"/>
      <point x="239" y="623"/>
      <point x="217" y="623"/>
      <point x="207" y="590" type="curve" smooth="yes"/>
      <point x="39" y="40" type="line" smooth="yes"/>
      <point x="34" y="25"/>
      <point x="34" y="23"/>
      <point x="34" y="22" type="curve" smooth="yes"/>
      <point x="34" y="0"/>
      <point x="54" y="0"/>
      <point x="69" y="0" type="curve" smooth="yes"/>
      <point x="455" y="0" type="line" smooth="yes"/>
      <point x="470" y="0"/>
      <point x="490" y="0"/>
      <point x="490" y="22" type="curve" smooth="yes"/>
      <point x="490" y="24"/>
      <point x="490" y="26"/>
      <point x="485" y="40" type="curve" smooth="yes"/>
    </contour>
    <contour>
      <point x="234" y="445" type="line" smooth="yes"/>
      <point x="244" y="477"/>
      <point x="257" y="521"/>
      <point x="262" y="540" type="curve"/>
      <point x="263" y="540" type="line"/>
      <point x="266" y="527"/>
      <point x="273" y="499"/>
      <point x="290" y="445" type="curve" smooth="yes"/>
      <point x="405" y="67" type="line"/>
      <point x="119" y="67" type="line"/>
    </contour>
  </outline>
</glyph>
<glyph name="dotlessj" format="2">
  <advance width="525"/>
  <outline>
    <contour>
      <point x="368" y="390" type="line" smooth="yes"/>
      <point x="368" y="421"/>
      <point x="362" y="431"/>
      <point x="328" y="431" type="curve" smooth="yes"/>
      <point x="170" y="431" type="line" smooth="yes"/>
      <point x="154" y="431"/>
      <point x="129" y="431"/>
      <point x="129" y="400" type="curve" smooth="yes"/>
      <point x="129" y="370"/>
      <point x="154" y="370"/>
      <point x="169" y="370" type="curve" smooth="yes"/>
      <point x="299" y="370" type="line"/>
      <point x="299" y="-39" type="line" smooth="yes"/>
      <point x="299" y="-56"/>
      <point x="299" y="-94"/>
      <point x="273" y="-129" type="curve" smooth="yes"/>
      <point x="246" y="-167"/>
      <point x="215" y="-167"/>
      <point x="192" y="-167" type="curve" smooth="yes"/>
      <point x="163" y="-167"/>
      <point x="151" y="-165"/>
      <point x="136" y="-163" type="curve"/>
      <point x="137" y="-160"/>
      <point x="137" y="-158"/>
      <point x="137" y="-151" type="curve" smooth="yes"/>
      <point x="137" y="-123"/>
      <point x="114" y="-106"/>
      <point x="93" y="-106" type="curve" smooth="yes"/>
      <point x="70" y="-106"/>
      <point x="48" y="-123"/>
      <point x="48" y="-152" type="curve" smooth="yes"/>
      <point x="48" y="-228"/>
      <point x="146" y="-228"/>
      <point x="187" y="-228" type="curve" smooth="yes"/>
      <point x="332" y="-228"/>
      <point x="368" y="-108"/>
      <point x="368" y="-44" type="curve" smooth="yes"/>
    </contour>
  </outline>
</glyph>
<glyph name="sfthyphen" format="2">
  <advance width="525"/>
  <outline>
    <contour>
      <point x="421" y="271" type="line" smooth="yes"/>
      <point x="433" y="271"/>
      <point x="468" y="271"/>
      <point x="468" y="306" type="curve" smooth="yes"/>
      <point x="468" y="341"/>
      <point x="433" y="341"/>
      <point x="421" y="341" type="curve" smooth="yes"/>
      <point x="103" y="341" type="line" smooth="yes"/>
      <point x="91" y="341"/>
      <point x="56" y="341"/>
      <point x="56" y="306" type="curve" smooth="yes"/>
      <point x="56" y="271"/>
      <point x="91" y="271"/>
      <point x="103" y="271" type="curve" smooth="yes"/>
    </contour>
  </outline>
</glyph>
